<?xml version="1.0" encoding="UTF-8" standalone="no"?><!DOCTYPE svg PUBLIC "-//W3C//DTD SVG 1.1//EN" "http://www.w3.org/Graphics/SVG/1.1/DTD/svg11.dtd">
<svg
    width="100%"
    height="100%"
    viewBox="0 0 2134 2134"
    version="1.1"
    xmlns="http://www.w3.org/2000/svg"
    xmlns:xlink="http://www.w3.org/1999/xlink"
    xml:space="preserve"
    xmlns:serif="http://www.serif.com/"
    style="fill-rule:evenodd;clip-rule:evenodd;stroke-linejoin:round;stroke-miterlimit:2;"
>
    <style type="text/css">
        .st0 {
            fill: #888;
        }
    </style>
    <path
        id="Frame"
        d="M1959.42,552.146l-0,1029.04l-892.754,514.433l-892.755,-514.433l0,-1029.04l892.755,-514.433l892.754,514.433Zm-892.754,-394.21c-0,0 -788.588,454.409 -788.588,454.409l0,908.643l788.588,454.409l788.587,-454.409l0,-908.643l-788.587,-454.409Z"
        class="st0"
    /><g id="Big">
        <path
            d="M1577.16,1300.96l0,-588.613l104.167,-60.024l-0,828.693l-1125.15,-648.345l0,588.321l-104.166,60.024l-0,-828.693l1125.15,648.637Z"
            class="st0"
        /><path
            d="M660.343,1240.74l197.926,-114.051l104.231,60.162l-302.157,174.112l-0,-120.223Z"
            class="st0"
        />
    </g>
</svg>